<svg width="728" height="1024" fill="none" xmlns="http://www.w3.org/2000/svg">
<path d="M728 0H0V1024H728V0Z" fill="white"/>
<path d="M91 0H0V102.4H91V0Z" fill="#5784BA"/>
<path d="M0 102.4C0 75.2418 9.58747 49.196 26.6533 29.9923C43.7191 10.7885 66.8653 0 91 0V102.4" fill="#5784BA"/>
<path d="M182 0H91V102.4H182V0Z" fill="#9AD9DB"/>
<path d="M136.5 0L182 51.2L136.5 102.4L91 51.2L136.5 0Z" fill="#5784BA"/>
<path d="M273 0H182V102.4H273V0Z" fill="white"/>
<path d="M227.5 0H182V51.2H227.5V0Z" fill="#5784BA"/>
<path d="M182 0C194.067 0 205.64 5.39427 214.173 14.9961C222.706 24.598 227.5 37.6209 227.5 51.2L182 0C182 13.5791 186.794 26.602 195.327 36.2039C203.86 45.8057 215.433 51.2 227.5 51.2" fill="#9AD9DB"/>
<path d="M273 0H227.5V51.2H273V0Z" fill="#9AD9DB"/>
<path d="M273 0H227.5V51.2H273V0Z" fill="#9AD9DB"/>
<path d="M227.5 51.2H182V102.4H227.5V51.2Z" fill="#5784BA"/>
<path d="M182 51.2C182 64.7791 186.794 77.802 195.327 87.4039C203.86 97.0057 215.433 102.4 227.5 102.4V51.2" fill="#9AD9DB"/>
<path d="M273 51.2H227.5V102.4H273V51.2Z" fill="#9AD9DB"/>
<path d="M250.25 51.2L273 76.8L250.25 102.4L227.5 76.8L250.25 51.2Z" fill="#5784BA"/>
<path d="M364 0H273V102.4H364V0Z" fill="#5784BA"/>
<path d="M364 0H273V102.4H364V0Z" fill="#9AD9DB"/>
<path d="M455 0H364V102.4H455V0Z" fill="#9AD9DB"/>
<path d="M409.5 0L455 51.2L409.5 102.4L364 51.2L409.5 0Z" fill="#5784BA"/>
<path d="M546 0H455V102.4H546V0Z" fill="#9AD9DB"/>
<path d="M500.5 0L546 51.2L500.5 102.4L455 51.2L500.5 0Z" fill="#5784BA"/>
<path d="M637 0H546V102.4H637V0Z" fill="#9AD9DB"/>
<path d="M591.5 0L637 51.2L591.5 102.4L546 51.2L591.5 0Z" fill="#9AD9DB"/>
<path d="M728 0H637V102.4H728V0Z" fill="white"/>
<path d="M682.5 0H637V51.2H682.5V0Z" fill="#9AD9DB"/>
<path d="M637 0C649.067 0 660.64 5.39427 669.173 14.9961C677.706 24.598 682.5 37.6209 682.5 51.2L637 0C637 13.5791 641.794 26.602 650.327 36.2039C658.86 45.8057 670.433 51.2 682.5 51.2" fill="#5784BA"/>
<path d="M728 0H682.5V51.2H728V0Z" fill="#9AD9DB"/>
<path d="M705.25 0L728 25.6L705.25 51.2L682.5 25.6L705.25 0Z" fill="#9AD9DB"/>
<path d="M682.5 51.2H637V102.4H682.5V51.2Z" fill="#5784BA"/>
<path d="M637 51.2H682.5L637 102.4V51.2Z" fill="#5784BA"/>
<path d="M728 51.2H682.5V102.4H728V51.2Z" fill="#9AD9DB"/>
<path d="M682.5 102.4C694.567 102.4 706.14 97.0057 714.673 87.4039C723.206 77.802 728 64.7791 728 51.2H682.5" fill="#9AD9DB"/>
<path d="M91 102.4H0V204.8H91V102.4Z" fill="#9AD9DB"/>
<path d="M0 204.8C0 177.642 9.58747 151.596 26.6533 132.392C43.7191 113.189 66.8653 102.4 91 102.4L0 204.8C24.1347 204.8 47.2809 194.011 64.3467 174.808C81.4125 155.604 91 129.558 91 102.4" fill="#9AD9DB"/>
<path d="M182 102.4H91V204.8H182V102.4Z" fill="#5784BA"/>
<path d="M136.5 102.4L182 153.6L136.5 204.8L91 153.6L136.5 102.4Z" fill="#5784BA"/>
<path d="M273 102.4H182V204.8H273V102.4Z" fill="#5784BA"/>
<path d="M182 102.4C182 129.558 191.587 155.604 208.653 174.808C225.719 194.011 248.865 204.8 273 204.8V102.4" fill="#9AD9DB"/>
<path d="M364 102.4H273V204.8H364V102.4Z" fill="white"/>
<path d="M318.5 102.4H273V153.6H318.5V102.4Z" fill="#5784BA"/>
<path d="M318.5 102.4H273V153.6H318.5V102.4Z" fill="#9AD9DB"/>
<path d="M364 102.4H318.5V153.6H364V102.4Z" fill="#9AD9DB"/>
<path d="M318.5 153.6C318.5 140.021 323.294 126.998 331.827 117.396C340.36 107.794 351.933 102.4 364 102.4L318.5 153.6C330.567 153.6 342.14 148.206 350.673 138.604C359.206 129.002 364 115.979 364 102.4" fill="#9AD9DB"/>
<path d="M318.5 153.6H273V204.8H318.5V153.6Z" fill="#9AD9DB"/>
<path d="M318.5 153.6V204.8H273L318.5 153.6Z" fill="#5784BA"/>
<path d="M364 153.6H318.5V204.8H364V153.6Z" fill="#5784BA"/>
<path d="M364 153.6H318.5V204.8H364V153.6Z" fill="#9AD9DB"/>
<path d="M455 102.4H364V204.8H455V102.4Z" fill="#9AD9DB"/>
<path d="M364 102.4H455V204.8L364 102.4Z" fill="#5784BA"/>
<path d="M546 102.4H455V204.8H546V102.4Z" fill="#5784BA"/>
<path d="M500.5 102.4L546 153.6L500.5 204.8L455 153.6L500.5 102.4Z" fill="#9AD9DB"/>
<path d="M637 102.4H546V204.8H637V102.4Z" fill="#9AD9DB"/>
<path d="M637 102.4H546V204.8H637V102.4Z" fill="#5784BA"/>
<path d="M728 102.4H637V204.8H728V102.4Z" fill="#9AD9DB"/>
<path d="M682.5 102.4L728 153.6L682.5 204.8L637 153.6L682.5 102.4Z" fill="#5784BA"/>
<path d="M91 204.8H0V307.2H91V204.8Z" fill="#9AD9DB"/>
<path d="M91 204.8H0V307.2H91V204.8Z" fill="#9AD9DB"/>
<path d="M182 204.8H91V307.2H182V204.8Z" fill="#5784BA"/>
<path d="M91 204.8L182 307.2H91V204.8Z" fill="#9AD9DB"/>
<path d="M273 204.8H182V307.2H273V204.8Z" fill="#9AD9DB"/>
<path d="M227.5 204.8L273 256L227.5 307.2L182 256L227.5 204.8Z" fill="#5784BA"/>
<path d="M364 204.8H273V307.2H364V204.8Z" fill="#5784BA"/>
<path d="M318.5 204.8L364 256L318.5 307.2L273 256L318.5 204.8Z" fill="#9AD9DB"/>
<path d="M455 204.8H364V307.2H455V204.8Z" fill="#9AD9DB"/>
<path d="M455 204.8H364V307.2H455V204.8Z" fill="#9AD9DB"/>
<path d="M546 204.8H455V307.2H546V204.8Z" fill="#5784BA"/>
<path d="M455 204.8C455 231.958 464.587 258.004 481.653 277.208C498.719 296.411 521.865 307.2 546 307.2V204.8" fill="#9AD9DB"/>
<path d="M637 204.8H546V307.2H637V204.8Z" fill="#5784BA"/>
<path d="M637 204.8H546V307.2H637V204.8Z" fill="#5784BA"/>
<path d="M728 204.8H637V307.2H728V204.8Z" fill="white"/>
<path d="M682.5 204.8H637V256H682.5V204.8Z" fill="#9AD9DB"/>
<path d="M659.75 204.8L682.5 230.4L659.75 256L637 230.4L659.75 204.8Z" fill="#9AD9DB"/>
<path d="M728 204.8H682.5V256H728V204.8Z" fill="#5784BA"/>
<path d="M728 204.8H682.5V256H728V204.8Z" fill="#9AD9DB"/>
<path d="M682.5 256H637V307.2H682.5V256Z" fill="#9AD9DB"/>
<path d="M637 256L682.5 307.2H637V256Z" fill="#5784BA"/>
<path d="M728 256H682.5V307.2H728V256Z" fill="#9AD9DB"/>
<path d="M728 256H682.5V307.2H728V256Z" fill="#5784BA"/>
<path d="M91 307.2H0V409.6H91V307.2Z" fill="#5784BA"/>
<path d="M0 307.2L91 409.6H0V307.2Z" fill="#9AD9DB"/>
<path d="M182 307.2H91V409.6H182V307.2Z" fill="#5784BA"/>
<path d="M136.5 307.2L182 358.4L136.5 409.6L91 358.4L136.5 307.2Z" fill="#9AD9DB"/>
<path d="M273 307.2H182V409.6H273V307.2Z" fill="white"/>
<path d="M227.5 307.2H182V358.4H227.5V307.2Z" fill="#5784BA"/>
<path d="M227.5 307.2H182V358.4H227.5V307.2Z" fill="#9AD9DB"/>
<path d="M273 307.2H227.5V358.4H273V307.2Z" fill="#9AD9DB"/>
<path d="M227.5 307.2L273 358.4H227.5V307.2Z" fill="#5784BA"/>
<path d="M227.5 358.4H182V409.6H227.5V358.4Z" fill="#9AD9DB"/>
<path d="M182 358.4H227.5V409.6L182 358.4Z" fill="#5784BA"/>
<path d="M273 358.4H227.5V409.6H273V358.4Z" fill="#9AD9DB"/>
<path d="M250.25 358.4L273 384L250.25 409.6L227.5 384L250.25 358.4Z" fill="#5784BA"/>
<path d="M364 307.2H273V409.6H364V307.2Z" fill="white"/>
<path d="M318.5 307.2H273V358.4H318.5V307.2Z" fill="#5784BA"/>
<path d="M318.5 307.2H273V358.4H318.5V307.2Z" fill="#9AD9DB"/>
<path d="M364 307.2H318.5V358.4H364V307.2Z" fill="#9AD9DB"/>
<path d="M341.25 307.2L364 332.8L341.25 358.4L318.5 332.8L341.25 307.2Z" fill="#5784BA"/>
<path d="M318.5 358.4H273V409.6H318.5V358.4Z" fill="#5784BA"/>
<path d="M273 409.6C273 396.021 277.794 382.998 286.327 373.396C294.86 363.794 306.433 358.4 318.5 358.4V409.6" fill="#9AD9DB"/>
<path d="M364 358.4H318.5V409.6H364V358.4Z" fill="#5784BA"/>
<path d="M318.5 358.4H364L318.5 409.6V358.4Z" fill="#9AD9DB"/>
<path d="M455 307.2H364V409.6H455V307.2Z" fill="white"/>
<path d="M409.5 307.2H364V358.4H409.5V307.2Z" fill="#5784BA"/>
<path d="M364 358.4C364 344.821 368.794 331.798 377.327 322.196C385.86 312.594 397.433 307.2 409.5 307.2V358.4" fill="#5784BA"/>
<path d="M455 307.2H409.5V358.4H455V307.2Z" fill="#9AD9DB"/>
<path d="M409.5 307.2C409.5 320.779 414.294 333.802 422.827 343.404C431.36 353.006 442.933 358.4 455 358.4V307.2" fill="#9AD9DB"/>
<path d="M409.5 358.4H364V409.6H409.5V358.4Z" fill="#5784BA"/>
<path d="M364 409.6C376.067 409.6 387.64 404.206 396.173 394.604C404.706 385.002 409.5 371.979 409.5 358.4H364" fill="#5784BA"/>
<path d="M455 358.4H409.5V409.6H455V358.4Z" fill="#9AD9DB"/>
<path d="M432.25 358.4L455 384L432.25 409.6L409.5 384L432.25 358.4Z" fill="#5784BA"/>
<path d="M546 307.2H455V409.6H546V307.2Z" fill="#5784BA"/>
<path d="M455 307.2C455 334.358 464.587 360.404 481.653 379.608C498.719 398.811 521.865 409.6 546 409.6V307.2" fill="#9AD9DB"/>
<path d="M637 307.2H546V409.6H637V307.2Z" fill="white"/>
<path d="M591.5 307.2H546V358.4H591.5V307.2Z" fill="#5784BA"/>
<path d="M568.75 307.2L591.5 332.8L568.75 358.4L546 332.8L568.75 307.2Z" fill="#9AD9DB"/>
<path d="M637 307.2H591.5V358.4H637V307.2Z" fill="#9AD9DB"/>
<path d="M591.5 307.2H637L591.5 358.4V307.2Z" fill="#5784BA"/>
<path d="M591.5 358.4H546V409.6H591.5V358.4Z" fill="#5784BA"/>
<path d="M568.75 358.4L591.5 384L568.75 409.6L546 384L568.75 358.4Z" fill="#9AD9DB"/>
<path d="M637 358.4H591.5V409.6H637V358.4Z" fill="#9AD9DB"/>
<path d="M637 358.4H591.5V409.6H637V358.4Z" fill="#5784BA"/>
<path d="M728 307.2H637V409.6H728V307.2Z" fill="white"/>
<path d="M682.5 307.2H637V358.4H682.5V307.2Z" fill="#9AD9DB"/>
<path d="M682.5 307.2H637V358.4H682.5V307.2Z" fill="#9AD9DB"/>
<path d="M728 307.2H682.5V358.4H728V307.2Z" fill="#5784BA"/>
<path d="M682.5 307.2C694.567 307.2 706.14 312.594 714.673 322.196C723.206 331.798 728 344.821 728 358.4L682.5 307.2C682.5 320.779 687.294 333.802 695.827 343.404C704.36 353.006 715.933 358.4 728 358.4" fill="#5784BA"/>
<path d="M682.5 358.4H637V409.6H682.5V358.4Z" fill="#5784BA"/>
<path d="M682.5 358.4H637V409.6H682.5V358.4Z" fill="#5784BA"/>
<path d="M728 358.4H682.5V409.6H728V358.4Z" fill="#9AD9DB"/>
<path d="M705.25 358.4L728 384L705.25 409.6L682.5 384L705.25 358.4Z" fill="#9AD9DB"/>
<path d="M91 409.6H0V512H91V409.6Z" fill="#5784BA"/>
<path d="M0 512C0 484.842 9.58747 458.796 26.6533 439.592C43.7191 420.389 66.8653 409.6 91 409.6L0 512C24.1347 512 47.2809 501.211 64.3467 482.008C81.4125 462.804 91 436.758 91 409.6" fill="#5784BA"/>
<path d="M182 409.6H91V512H182V409.6Z" fill="#5784BA"/>
<path d="M91 409.6H182V512L91 409.6Z" fill="#9AD9DB"/>
<path d="M273 409.6H182V512H273V409.6Z" fill="#5784BA"/>
<path d="M273 409.6H182V512H273V409.6Z" fill="#5784BA"/>
<path d="M364 409.6H273V512H364V409.6Z" fill="#9AD9DB"/>
<path d="M273 409.6C297.135 409.6 320.281 420.389 337.347 439.592C354.413 458.796 364 484.842 364 512L273 409.6C273 436.758 282.587 462.804 299.653 482.008C316.719 501.211 339.865 512 364 512" fill="#5784BA"/>
<path d="M455 409.6H364V512H455V409.6Z" fill="white"/>
<path d="M409.5 409.6H364V460.8H409.5V409.6Z" fill="#9AD9DB"/>
<path d="M364 409.6L409.5 460.8H364V409.6Z" fill="#9AD9DB"/>
<path d="M455 409.6H409.5V460.8H455V409.6Z" fill="#9AD9DB"/>
<path d="M409.5 460.8C409.5 447.221 414.294 434.198 422.827 424.596C431.36 414.994 442.933 409.6 455 409.6L409.5 460.8C421.567 460.8 433.14 455.406 441.673 445.804C450.206 436.202 455 423.179 455 409.6" fill="#9AD9DB"/>
<path d="M409.5 460.8H364V512H409.5V460.8Z" fill="#5784BA"/>
<path d="M386.75 460.8L409.5 486.4L386.75 512L364 486.4L386.75 460.8Z" fill="#5784BA"/>
<path d="M455 460.8H409.5V512H455V460.8Z" fill="#5784BA"/>
<path d="M455 460.8H409.5V512H455V460.8Z" fill="#9AD9DB"/>
<path d="M546 409.6H455V512H546V409.6Z" fill="#5784BA"/>
<path d="M455 409.6C455 436.758 464.587 462.804 481.653 482.008C498.719 501.211 521.865 512 546 512V409.6" fill="#5784BA"/>
<path d="M637 409.6H546V512H637V409.6Z" fill="white"/>
<path d="M591.5 409.6H546V460.8H591.5V409.6Z" fill="#9AD9DB"/>
<path d="M591.5 409.6H546V460.8H591.5V409.6Z" fill="#9AD9DB"/>
<path d="M637 409.6H591.5V460.8H637V409.6Z" fill="#5784BA"/>
<path d="M614.25 409.6L637 435.2L614.25 460.8L591.5 435.2L614.25 409.6Z" fill="#9AD9DB"/>
<path d="M591.5 460.8H546V512H591.5V460.8Z" fill="#9AD9DB"/>
<path d="M546 460.8L591.5 512H546V460.8Z" fill="#9AD9DB"/>
<path d="M637 460.8H591.5V512H637V460.8Z" fill="#9AD9DB"/>
<path d="M614.25 460.8L637 486.4L614.25 512L591.5 486.4L614.25 460.8Z" fill="#9AD9DB"/>
<path d="M728 409.6H637V512H728V409.6Z" fill="#5784BA"/>
<path d="M728 409.6H637V512H728V409.6Z" fill="#5784BA"/>
<path d="M91 512H0V614.4H91V512Z" fill="#5784BA"/>
<path d="M0 512C24.1347 512 47.2809 522.789 64.3467 541.992C81.4125 561.196 91 587.242 91 614.4L0 512C0 539.158 9.58747 565.204 26.6533 584.408C43.7191 603.611 66.8653 614.4 91 614.4" fill="#5784BA"/>
<path d="M182 512H91V614.4H182V512Z" fill="white"/>
<path d="M136.5 512H91V563.2H136.5V512Z" fill="#5784BA"/>
<path d="M91 512C91 525.579 95.7937 538.602 104.327 548.204C112.86 557.806 124.433 563.2 136.5 563.2V512" fill="#9AD9DB"/>
<path d="M182 512H136.5V563.2H182V512Z" fill="#9AD9DB"/>
<path d="M182 512V563.2H136.5L182 512Z" fill="#5784BA"/>
<path d="M136.5 563.2H91V614.4H136.5V563.2Z" fill="#9AD9DB"/>
<path d="M113.75 563.2L136.5 588.8L113.75 614.4L91 588.8L113.75 563.2Z" fill="#9AD9DB"/>
<path d="M182 563.2H136.5V614.4H182V563.2Z" fill="#9AD9DB"/>
<path d="M159.25 563.2L182 588.8L159.25 614.4L136.5 588.8L159.25 563.2Z" fill="#5784BA"/>
<path d="M273 512H182V614.4H273V512Z" fill="#5784BA"/>
<path d="M182 614.4C206.135 614.4 229.281 603.611 246.347 584.408C263.413 565.204 273 539.158 273 512H182" fill="#9AD9DB"/>
<path d="M364 512H273V614.4H364V512Z" fill="#5784BA"/>
<path d="M364 512H273V614.4H364V512Z" fill="#5784BA"/>
<path d="M455 512H364V614.4H455V512Z" fill="#5784BA"/>
<path d="M364 512C388.135 512 411.281 522.789 428.347 541.992C445.413 561.196 455 587.242 455 614.4H364" fill="#5784BA"/>
<path d="M546 512H455V614.4H546V512Z" fill="white"/>
<path d="M500.5 512H455V563.2H500.5V512Z" fill="#9AD9DB"/>
<path d="M500.5 512H455V563.2H500.5V512Z" fill="#5784BA"/>
<path d="M546 512H500.5V563.2H546V512Z" fill="#9AD9DB"/>
<path d="M546 512H500.5V563.2H546V512Z" fill="#5784BA"/>
<path d="M500.5 563.2H455V614.4H500.5V563.2Z" fill="#5784BA"/>
<path d="M500.5 563.2V614.4H455L500.5 563.2Z" fill="#9AD9DB"/>
<path d="M546 563.2H500.5V614.4H546V563.2Z" fill="#5784BA"/>
<path d="M500.5 563.2H546L500.5 614.4V563.2Z" fill="#5784BA"/>
<path d="M637 512H546V614.4H637V512Z" fill="#9AD9DB"/>
<path d="M546 614.4C570.135 614.4 593.281 603.611 610.347 584.408C627.413 565.204 637 539.158 637 512H546" fill="#5784BA"/>
<path d="M728 512H637V614.4H728V512Z" fill="#9AD9DB"/>
<path d="M728 512H637V614.4H728V512Z" fill="#9AD9DB"/>
<path d="M91 614.4H0V716.8H91V614.4Z" fill="white"/>
<path d="M45.5 614.4H0V665.6H45.5V614.4Z" fill="#9AD9DB"/>
<path d="M0 665.6C12.0674 665.6 23.6405 660.206 32.1734 650.604C40.7063 641.002 45.5 627.979 45.5 614.4H0" fill="#9AD9DB"/>
<path d="M91 614.4H45.5V665.6H91V614.4Z" fill="#5784BA"/>
<path d="M91 614.4H45.5V665.6H91V614.4Z" fill="#9AD9DB"/>
<path d="M45.5 665.6H0V716.8H45.5V665.6Z" fill="#5784BA"/>
<path d="M22.75 665.6L45.5 691.2L22.75 716.8L0 691.2L22.75 665.6Z" fill="#5784BA"/>
<path d="M91 665.6H45.5V716.8H91V665.6Z" fill="#5784BA"/>
<path d="M68.25 665.6L91 691.2L68.25 716.8L45.5 691.2L68.25 665.6Z" fill="#5784BA"/>
<path d="M182 614.4H91V716.8H182V614.4Z" fill="white"/>
<path d="M136.5 614.4H91V665.6H136.5V614.4Z" fill="#9AD9DB"/>
<path d="M91 614.4L136.5 665.6H91V614.4Z" fill="#5784BA"/>
<path d="M182 614.4H136.5V665.6H182V614.4Z" fill="#9AD9DB"/>
<path d="M159.25 614.4L182 640L159.25 665.6L136.5 640L159.25 614.4Z" fill="#9AD9DB"/>
<path d="M136.5 665.6H91V716.8H136.5V665.6Z" fill="#9AD9DB"/>
<path d="M136.5 665.6V716.8H91L136.5 665.6Z" fill="#9AD9DB"/>
<path d="M182 665.6H136.5V716.8H182V665.6Z" fill="#9AD9DB"/>
<path d="M159.25 665.6L182 691.2L159.25 716.8L136.5 691.2L159.25 665.6Z" fill="#9AD9DB"/>
<path d="M273 614.4H182V716.8H273V614.4Z" fill="#9AD9DB"/>
<path d="M273 614.4V716.8H182L273 614.4Z" fill="#5784BA"/>
<path d="M364 614.4H273V716.8H364V614.4Z" fill="#9AD9DB"/>
<path d="M364 614.4V716.8H273L364 614.4Z" fill="#5784BA"/>
<path d="M455 614.4H364V716.8H455V614.4Z" fill="white"/>
<path d="M409.5 614.4H364V665.6H409.5V614.4Z" fill="#9AD9DB"/>
<path d="M409.5 614.4H364V665.6H409.5V614.4Z" fill="#9AD9DB"/>
<path d="M455 614.4H409.5V665.6H455V614.4Z" fill="#5784BA"/>
<path d="M409.5 614.4C421.567 614.4 433.14 619.794 441.673 629.396C450.206 638.998 455 652.021 455 665.6L409.5 614.4C409.5 627.979 414.294 641.002 422.827 650.604C431.36 660.206 442.933 665.6 455 665.6" fill="#5784BA"/>
<path d="M409.5 665.6H364V716.8H409.5V665.6Z" fill="#5784BA"/>
<path d="M386.75 665.6L409.5 691.2L386.75 716.8L364 691.2L386.75 665.6Z" fill="#5784BA"/>
<path d="M455 665.6H409.5V716.8H455V665.6Z" fill="#5784BA"/>
<path d="M455 665.6H409.5V716.8H455V665.6Z" fill="#9AD9DB"/>
<path d="M546 614.4H455V716.8H546V614.4Z" fill="white"/>
<path d="M500.5 614.4H455V665.6H500.5V614.4Z" fill="#9AD9DB"/>
<path d="M455 614.4C467.067 614.4 478.64 619.794 487.173 629.396C495.706 638.998 500.5 652.021 500.5 665.6H455" fill="#5784BA"/>
<path d="M546 614.4H500.5V665.6H546V614.4Z" fill="#5784BA"/>
<path d="M523.25 614.4L546 640L523.25 665.6L500.5 640L523.25 614.4Z" fill="#5784BA"/>
<path d="M500.5 665.6H455V716.8H500.5V665.6Z" fill="#5784BA"/>
<path d="M455 716.8C467.067 716.8 478.64 711.406 487.173 701.804C495.706 692.202 500.5 679.179 500.5 665.6H455" fill="#5784BA"/>
<path d="M546 665.6H500.5V716.8H546V665.6Z" fill="#9AD9DB"/>
<path d="M546 665.6V716.8H500.5L546 665.6Z" fill="#9AD9DB"/>
<path d="M637 614.4H546V716.8H637V614.4Z" fill="#9AD9DB"/>
<path d="M637 614.4H546V716.8H637V614.4Z" fill="#9AD9DB"/>
<path d="M728 614.4H637V716.8H728V614.4Z" fill="#5784BA"/>
<path d="M637 614.4C661.135 614.4 684.281 625.189 701.347 644.392C718.413 663.596 728 689.642 728 716.8L637 614.4C637 641.558 646.587 667.604 663.653 686.808C680.719 706.011 703.865 716.8 728 716.8" fill="#5784BA"/>
<path d="M91 716.8H0V819.2H91V716.8Z" fill="#9AD9DB"/>
<path d="M0 716.8H91L0 819.2V716.8Z" fill="#5784BA"/>
<path d="M182 716.8H91V819.2H182V716.8Z" fill="white"/>
<path d="M136.5 716.8H91V768H136.5V716.8Z" fill="#5784BA"/>
<path d="M136.5 716.8H91V768H136.5V716.8Z" fill="#9AD9DB"/>
<path d="M182 716.8H136.5V768H182V716.8Z" fill="#5784BA"/>
<path d="M182 716.8H136.5V768H182V716.8Z" fill="#9AD9DB"/>
<path d="M136.5 768H91V819.2H136.5V768Z" fill="#9AD9DB"/>
<path d="M136.5 768V819.2H91L136.5 768Z" fill="#5784BA"/>
<path d="M182 768H136.5V819.2H182V768Z" fill="#9AD9DB"/>
<path d="M182 768H136.5V819.2H182V768Z" fill="#5784BA"/>
<path d="M273 716.8H182V819.2H273V716.8Z" fill="white"/>
<path d="M227.5 716.8H182V768H227.5V716.8Z" fill="#5784BA"/>
<path d="M227.5 716.8H182V768H227.5V716.8Z" fill="#5784BA"/>
<path d="M273 716.8H227.5V768H273V716.8Z" fill="#9AD9DB"/>
<path d="M227.5 768C227.5 754.421 232.294 741.398 240.827 731.796C249.36 722.194 260.933 716.8 273 716.8V768" fill="#9AD9DB"/>
<path d="M227.5 768H182V819.2H227.5V768Z" fill="#9AD9DB"/>
<path d="M204.75 768L227.5 793.6L204.75 819.2L182 793.6L204.75 768Z" fill="#5784BA"/>
<path d="M273 768H227.5V819.2H273V768Z" fill="#9AD9DB"/>
<path d="M227.5 768C239.567 768 251.14 773.394 259.673 782.996C268.206 792.598 273 805.621 273 819.2L227.5 768C227.5 781.579 232.294 794.602 240.827 804.204C249.36 813.806 260.933 819.2 273 819.2" fill="#9AD9DB"/>
<path d="M364 716.8H273V819.2H364V716.8Z" fill="#5784BA"/>
<path d="M273 716.8L364 819.2H273V716.8Z" fill="#5784BA"/>
<path d="M455 716.8H364V819.2H455V716.8Z" fill="#5784BA"/>
<path d="M455 716.8H364V819.2H455V716.8Z" fill="#9AD9DB"/>
<path d="M546 716.8H455V819.2H546V716.8Z" fill="white"/>
<path d="M500.5 716.8H455V768H500.5V716.8Z" fill="#5784BA"/>
<path d="M477.75 716.8L500.5 742.4L477.75 768L455 742.4L477.75 716.8Z" fill="#9AD9DB"/>
<path d="M546 716.8H500.5V768H546V716.8Z" fill="#5784BA"/>
<path d="M500.5 716.8C512.567 716.8 524.14 722.194 532.673 731.796C541.206 741.398 546 754.421 546 768L500.5 716.8C500.5 730.379 505.294 743.402 513.827 753.004C522.36 762.606 533.933 768 546 768" fill="#9AD9DB"/>
<path d="M500.5 768H455V819.2H500.5V768Z" fill="#5784BA"/>
<path d="M455 819.2C467.067 819.2 478.64 813.806 487.173 804.204C495.706 794.602 500.5 781.579 500.5 768H455" fill="#5784BA"/>
<path d="M546 768H500.5V819.2H546V768Z" fill="#9AD9DB"/>
<path d="M546 768H500.5V819.2H546V768Z" fill="#5784BA"/>
<path d="M637 716.8H546V819.2H637V716.8Z" fill="#5784BA"/>
<path d="M546 716.8H637L546 819.2V716.8Z" fill="#5784BA"/>
<path d="M728 716.8H637V819.2H728V716.8Z" fill="#9AD9DB"/>
<path d="M728 716.8V819.2H637L728 716.8Z" fill="#9AD9DB"/>
<path d="M91 819.2H0V921.6H91V819.2Z" fill="#9AD9DB"/>
<path d="M0 921.6C24.1347 921.6 47.2809 910.811 64.3467 891.608C81.4125 872.404 91 846.358 91 819.2H0" fill="#9AD9DB"/>
<path d="M182 819.2H91V921.6H182V819.2Z" fill="#5784BA"/>
<path d="M136.5 819.2L182 870.4L136.5 921.6L91 870.4L136.5 819.2Z" fill="#5784BA"/>
<path d="M273 819.2H182V921.6H273V819.2Z" fill="#9AD9DB"/>
<path d="M273 819.2H182V921.6H273V819.2Z" fill="#5784BA"/>
<path d="M364 819.2H273V921.6H364V819.2Z" fill="#5784BA"/>
<path d="M273 921.6C273 894.442 282.587 868.396 299.653 849.192C316.719 829.989 339.865 819.2 364 819.2L273 921.6C297.135 921.6 320.281 910.811 337.347 891.608C354.413 872.404 364 846.358 364 819.2" fill="#9AD9DB"/>
<path d="M455 819.2H364V921.6H455V819.2Z" fill="#9AD9DB"/>
<path d="M364 819.2C388.135 819.2 411.281 829.989 428.347 849.192C445.413 868.396 455 894.442 455 921.6H364" fill="#5784BA"/>
<path d="M546 819.2H455V921.6H546V819.2Z" fill="#5784BA"/>
<path d="M455 819.2H546L455 921.6V819.2Z" fill="#9AD9DB"/>
<path d="M637 819.2H546V921.6H637V819.2Z" fill="white"/>
<path d="M591.5 819.2H546V870.4H591.5V819.2Z" fill="#5784BA"/>
<path d="M591.5 819.2H546V870.4H591.5V819.2Z" fill="#5784BA"/>
<path d="M637 819.2H591.5V870.4H637V819.2Z" fill="#9AD9DB"/>
<path d="M614.25 819.2L637 844.8L614.25 870.4L591.5 844.8L614.25 819.2Z" fill="#5784BA"/>
<path d="M591.5 870.4H546V921.6H591.5V870.4Z" fill="#5784BA"/>
<path d="M546 921.6C546 908.021 550.794 894.998 559.327 885.396C567.86 875.794 579.433 870.4 591.5 870.4L546 921.6C558.067 921.6 569.64 916.206 578.173 906.604C586.706 897.002 591.5 883.979 591.5 870.4" fill="#9AD9DB"/>
<path d="M637 870.4H591.5V921.6H637V870.4Z" fill="#9AD9DB"/>
<path d="M591.5 870.4L637 921.6H591.5V870.4Z" fill="#9AD9DB"/>
<path d="M728 819.2H637V921.6H728V819.2Z" fill="#5784BA"/>
<path d="M637 819.2C661.135 819.2 684.281 829.989 701.347 849.192C718.413 868.396 728 894.442 728 921.6H637" fill="#9AD9DB"/>
<path d="M91 921.6H0V1024H91V921.6Z" fill="#9AD9DB"/>
<path d="M0 921.6C24.1347 921.6 47.2809 932.389 64.3467 951.592C81.4125 970.796 91 996.842 91 1024H0" fill="#5784BA"/>
<path d="M182 921.6H91V1024H182V921.6Z" fill="#5784BA"/>
<path d="M182 921.6H91V1024H182V921.6Z" fill="#5784BA"/>
<path d="M273 921.6H182V1024H273V921.6Z" fill="#9AD9DB"/>
<path d="M182 921.6C206.135 921.6 229.281 932.389 246.347 951.592C263.413 970.796 273 996.842 273 1024L182 921.6C182 948.758 191.587 974.804 208.653 994.008C225.719 1013.21 248.865 1024 273 1024" fill="#9AD9DB"/>
<path d="M364 921.6H273V1024H364V921.6Z" fill="#5784BA"/>
<path d="M273 921.6L364 1024H273V921.6Z" fill="#5784BA"/>
<path d="M455 921.6H364V1024H455V921.6Z" fill="#5784BA"/>
<path d="M364 1024C364 996.842 373.587 970.796 390.653 951.592C407.719 932.389 430.865 921.6 455 921.6L364 1024C388.135 1024 411.281 1013.21 428.347 994.008C445.413 974.804 455 948.758 455 921.6" fill="#9AD9DB"/>
<path d="M546 921.6H455V1024H546V921.6Z" fill="white"/>
<path d="M500.5 921.6H455V972.8H500.5V921.6Z" fill="#5784BA"/>
<path d="M455 972.8C455 959.221 459.794 946.198 468.327 936.596C476.86 926.994 488.433 921.6 500.5 921.6V972.8" fill="#9AD9DB"/>
<path d="M546 921.6H500.5V972.8H546V921.6Z" fill="#9AD9DB"/>
<path d="M500.5 921.6H546V972.8L500.5 921.6Z" fill="#9AD9DB"/>
<path d="M500.5 972.8H455V1024H500.5V972.8Z" fill="#5784BA"/>
<path d="M455 972.8H500.5V1024L455 972.8Z" fill="#5784BA"/>
<path d="M546 972.8H500.5V1024H546V972.8Z" fill="#9AD9DB"/>
<path d="M500.5 972.8C512.567 972.8 524.14 978.194 532.673 987.796C541.206 997.398 546 1010.42 546 1024H500.5" fill="#9AD9DB"/>
<path d="M637 921.6H546V1024H637V921.6Z" fill="#5784BA"/>
<path d="M546 921.6H637V1024L546 921.6Z" fill="#9AD9DB"/>
<path d="M728 921.6H637V1024H728V921.6Z" fill="#5784BA"/>
<path d="M637 1024C637 996.842 646.587 970.796 663.653 951.592C680.719 932.389 703.865 921.6 728 921.6L637 1024C661.135 1024 684.281 1013.21 701.347 994.008C718.413 974.804 728 948.758 728 921.6" fill="#5784BA"/>
</svg>
